<svg width="66" height="66" viewBox="0 0 66 66" fill="none" xmlns="http://www.w3.org/2000/svg">
<g filter="url(#filter0_dd_1_6344)">
<circle cx="33" cy="23" r="18" fill="white"/>
</g>
<path d="M29.822 15H27.2857C26.0233 15 25 16.0233 25 17.2857V19.5714C25 25.8833 30.1167 31 36.4286 31H38.7143C39.9767 31 41 29.9767 41 28.7143V27.1349C41 26.702 40.7554 26.3063 40.3682 26.1127L37.6072 24.7322C36.9851 24.4211 36.2318 24.7332 36.0119 25.393L35.6716 26.4139C35.4511 27.0752 34.7728 27.4688 34.0892 27.3321C31.3535 26.785 29.215 24.6465 28.6679 21.9108C28.5312 21.2272 28.9248 20.5489 29.5861 20.3284L30.8531 19.9061C31.4197 19.7173 31.7453 19.1241 31.6005 18.5447L30.9307 15.8657C30.8035 15.3569 30.3464 15 29.822 15Z" stroke="#226CF5" stroke-width="1.5"/>
<defs>
<filter id="filter0_dd_1_6344" x="0" y="0" width="66" height="66" filterUnits="userSpaceOnUse" color-interpolation-filters="sRGB">
<feFlood flood-opacity="0" result="BackgroundImageFix"/>
<feColorMatrix in="SourceAlpha" type="matrix" values="0 0 0 0 0 0 0 0 0 0 0 0 0 0 0 0 0 0 127 0" result="hardAlpha"/>
<feOffset dy="10"/>
<feGaussianBlur stdDeviation="7.5"/>
<feColorMatrix type="matrix" values="0 0 0 0 0 0 0 0 0 0 0 0 0 0 0 0 0 0 0.1 0"/>
<feBlend mode="normal" in2="BackgroundImageFix" result="effect1_dropShadow_1_6344"/>
<feColorMatrix in="SourceAlpha" type="matrix" values="0 0 0 0 0 0 0 0 0 0 0 0 0 0 0 0 0 0 127 0" result="hardAlpha"/>
<feOffset/>
<feGaussianBlur stdDeviation="2.5"/>
<feColorMatrix type="matrix" values="0 0 0 0 0 0 0 0 0 0 0 0 0 0 0 0 0 0 0.05 0"/>
<feBlend mode="normal" in2="effect1_dropShadow_1_6344" result="effect2_dropShadow_1_6344"/>
<feBlend mode="normal" in="SourceGraphic" in2="effect2_dropShadow_1_6344" result="shape"/>
</filter>
</defs>
</svg>
